<svg width="17" height="21" viewBox="0 0 17 21" fill="none" xmlns="http://www.w3.org/2000/svg">
<path d="M16.4846 1.43345C16.4846 0.641754 15.8429 0 15.0512 0H1.43345C0.641754 0 0 0.641754 0 1.43345V19.5666C0 20.3582 0.641754 21 1.43345 21H15.0512C15.8429 21 16.4846 20.3582 16.4846 19.5666V1.43345ZM8.26619 2.06811C9.53565 2.06811 10.5648 3.09718 10.5648 4.36671C10.5648 5.63624 9.53572 6.66531 8.26619 6.66531C6.99665 6.66531 5.96758 5.63624 5.96758 4.36671C5.96758 3.09718 6.99665 2.06811 8.26619 2.06811ZM8.26619 18.7033C5.44681 18.7033 3.15308 16.4096 3.15308 13.5902C3.15308 10.7709 5.44681 8.47712 8.26619 8.47712C11.0856 8.47712 13.3793 10.7709 13.3793 13.5902C13.3793 16.4096 11.0856 18.7033 8.26619 18.7033Z" fill="#F9F9F9" fill-opacity="0.39"/>
<path d="M8.26616 10.6273C6.63239 10.6273 5.30322 11.9564 5.30322 13.5902C5.30322 15.224 6.63239 16.5531 8.26616 16.5531C9.89993 16.5531 11.2291 15.224 11.2291 13.5902C11.2291 11.9564 9.89993 10.6273 8.26616 10.6273ZM8.26623 15.142C7.40917 15.142 6.71445 14.4473 6.71445 13.5903C6.71445 12.7333 7.40924 12.0385 8.26623 12.0385C9.12322 12.0385 9.81801 12.7333 9.81801 13.5903C9.81801 14.4473 9.12322 15.142 8.26623 15.142Z" fill="#F9F9F9" fill-opacity="0.39"/>
</svg>
