<svg width="30" height="38" viewBox="0 0 30 38" fill="none" xmlns="http://www.w3.org/2000/svg">
<path d="M29.2607 13.0177C29.2663 11.9192 28.9658 10.8409 28.3933 9.90351C27.8206 8.96612 26.9982 8.20665 26.0184 7.71016C25.0385 7.21367 23.9397 6.99977 22.8453 7.0924C21.7506 7.18505 20.7036 7.58058 19.821 8.23468C18.9386 8.88879 18.2556 9.77565 17.8487 10.796C17.4418 11.8163 17.3267 12.9297 17.5169 14.0116C17.707 15.0935 18.1943 16.1012 18.9247 16.9217C19.655 17.7422 20.5995 18.3432 21.652 18.6574C21.2634 19.4472 20.6621 20.1131 19.9158 20.58C19.1696 21.047 18.3079 21.2966 17.4276 21.3009H12.6943C10.942 21.307 9.25477 21.9651 7.96101 23.1469V11.7136C9.39761 11.4204 10.6742 10.6042 11.5431 9.42322C12.4122 8.24227 12.8117 6.78072 12.6643 5.32192C12.5169 3.86313 11.8332 2.51101 10.7455 1.52771C9.6579 0.544422 8.24392 0 6.77769 0C5.31147 0 3.89748 0.544422 2.80984 1.52771C1.72221 2.51101 1.03842 3.86313 0.891062 5.32192C0.743684 6.78072 1.14323 8.24227 2.01223 9.42322C2.88123 10.6042 4.15778 11.4204 5.59437 11.7136V26.1501C4.16048 26.4243 2.87648 27.2138 1.98459 28.3696C1.0927 29.5254 0.654572 30.9676 0.752819 32.4242C0.851082 33.8808 1.47893 35.2511 2.51797 36.2765C3.557 37.302 4.93539 37.912 6.39313 37.9912C7.85088 38.0704 9.28721 37.6133 10.4312 36.7064C11.5752 35.7995 12.3478 34.5053 12.6032 33.068C12.8587 31.6305 12.5794 30.1494 11.8179 28.9038C11.0565 27.6581 9.8656 26.7342 8.46984 26.3063C8.85915 25.5173 9.46067 24.8524 10.2069 24.3863C10.9531 23.9201 11.8145 23.6713 12.6943 23.6675H17.4276C18.9043 23.6607 20.3421 23.1936 21.5409 22.3312C22.7397 21.4688 23.6397 20.254 24.1157 18.8561C25.5342 18.6697 26.8371 17.9753 27.7832 16.9018C28.7292 15.8283 29.2541 14.4484 29.2607 13.0177ZM3.22774 5.91775C3.22774 5.21563 3.43594 4.52929 3.82601 3.9455C4.21609 3.36172 4.77051 2.90671 5.41918 2.63801C6.06786 2.36934 6.78164 2.29903 7.47025 2.43601C8.15888 2.57298 8.79142 2.91108 9.28789 3.40755C9.78436 3.90402 10.1225 4.53656 10.2594 5.22519C10.3964 5.91382 10.3261 6.6276 10.0574 7.27626C9.78873 7.92492 9.33372 8.47936 8.74993 8.86943C8.16615 9.2595 7.47981 9.4677 6.77769 9.4677C5.83618 9.4677 4.93324 9.09369 4.26749 8.42794C3.60174 7.76221 3.22774 6.85926 3.22774 5.91775ZM10.3276 31.9507C10.3276 32.6528 10.1194 33.3392 9.72937 33.9229C9.33929 34.5067 8.78487 34.9617 8.1362 35.2304C7.48752 35.4991 6.77375 35.5695 6.08513 35.4325C5.39651 35.2956 4.76397 34.9575 4.26749 34.461C3.77102 33.9644 3.43292 33.3319 3.29594 32.6434C3.15898 31.9547 3.22927 31.2409 3.49796 30.5923C3.76665 29.9435 4.22166 29.3891 4.80545 28.9991C5.38923 28.6091 6.07557 28.4008 6.77769 28.4008C7.7192 28.4008 8.62214 28.7749 9.28789 29.4405C9.95364 30.1063 10.3276 31.0093 10.3276 31.9507ZM23.3441 16.5676C22.642 16.5676 21.9557 16.3593 21.3719 15.9693C20.7882 15.5793 20.3332 15.0248 20.0645 14.3762C19.7958 13.7275 19.7254 13.0137 19.8623 12.3251C19.9993 11.6365 20.3374 11.0039 20.8339 10.5075C21.3305 10.011 21.963 9.67289 22.6515 9.53591C23.3402 9.39894 24.054 9.46925 24.7026 9.73792C25.3514 10.0066 25.9058 10.4616 26.2958 11.0454C26.6858 11.6292 26.8941 12.3155 26.8941 13.0177C26.8941 13.9592 26.52 14.8621 25.8544 15.5279C25.1885 16.1935 24.2856 16.5676 23.3441 16.5676Z" fill="#C5C5C5"/>
</svg>
