<svg width="38" height="38" viewBox="0 0 38 38" fill="none" xmlns="http://www.w3.org/2000/svg">
<path d="M17.3217 21.375L15.2317 23.465C14.9138 22.1853 14.1768 21.0487 13.1381 20.2364C12.0993 19.4241 10.8186 18.9828 9.5 18.9828C8.18137 18.9828 6.90068 19.4241 5.86195 20.2364C4.82322 21.0487 4.08621 22.1853 3.76833 23.465L1.67833 21.375L0 23.0533L2.72333 25.7767L2.375 26.125V28.5H0V30.875H2.375V31.0017C2.49613 31.7754 2.71423 32.5308 3.02417 33.25L0 36.3217L1.67833 38L4.29083 35.3875C4.9124 36.1805 5.70186 36.8261 6.60252 37.2778C7.50319 37.7295 8.4927 37.9761 9.5 38C10.5073 37.9761 11.4968 37.7295 12.3975 37.2778C13.2981 36.8261 14.0876 36.1805 14.7092 35.3875L17.3217 38L19 36.3217L15.9758 33.25C16.2896 32.5157 16.5078 31.7441 16.625 30.9542V30.7958H19V28.5H16.625V26.125L16.2767 25.7767L19 23.0533L17.3217 21.375ZM9.5 21.375C10.4448 21.375 11.351 21.7503 12.0191 22.4184C12.6872 23.0865 13.0625 23.9927 13.0625 24.9375H5.9375C5.9375 23.9927 6.31283 23.0865 6.98093 22.4184C7.64903 21.7503 8.55517 21.375 9.5 21.375V21.375ZM14.25 30.875C14.134 32.0955 13.5963 33.2375 12.7294 34.1044C11.8624 34.9713 10.7205 35.509 9.5 35.625C8.27949 35.509 7.13755 34.9713 6.27063 34.1044C5.40371 33.2375 4.866 32.0955 4.75 30.875V27.3125H14.25V30.875ZM37.62 15.2V17.195L21.375 27.5025V24.7L34.8333 16.1975L14.25 3.16667V18.145C13.5265 17.6368 12.724 17.2516 11.875 17.005V0.9975L13.68 0L37.62 15.2Z" fill="#C5C5C5"/>
</svg>
