<svg width="37" height="38" viewBox="0 0 37 38" fill="none" xmlns="http://www.w3.org/2000/svg">
<path d="M23.1459 1.62364e-06C20.6291 -0.00125289 18.1656 0.724492 16.0516 2.09011C13.9376 3.45573 12.2629 5.40297 11.2293 7.69768C10.1957 9.9924 9.8471 12.5369 10.2252 15.025C10.6034 17.5132 11.6921 19.8393 13.3608 21.7233L0.583374 36.2267L2.3567 37.81L15.1026 23.37C16.742 24.6515 18.6638 25.5227 20.7081 25.9112C22.7523 26.2997 24.8599 26.1942 26.8551 25.6035C28.8503 25.0128 30.6755 23.9539 32.1787 22.5151C33.682 21.0764 34.8197 19.2994 35.4973 17.332C36.1749 15.3646 36.3728 13.2636 36.0742 11.2043C35.7757 9.14503 34.9895 7.18699 33.7812 5.49296C32.5728 3.79893 30.9774 2.41793 29.1274 1.46524C27.2775 0.512555 25.2267 0.015699 23.1459 0.0158504V1.62364e-06ZM23.1459 23.75C21.0321 23.75 18.9657 23.1232 17.2082 21.9488C15.4506 20.7745 14.0808 19.1053 13.2719 17.1525C12.463 15.1996 12.2513 13.0506 12.6636 10.9774C13.076 8.90425 14.094 7.00001 15.5887 5.50533C17.0834 4.01066 18.9876 2.99264 21.0608 2.58026C23.134 2.16788 25.2829 2.3796 27.2358 3.18851C29.1887 3.99742 30.8579 5.36726 32.0322 7.12481C33.2066 8.88236 33.8334 10.9487 33.8334 13.0625C33.8334 15.897 32.7073 18.6154 30.703 20.6197C28.6987 22.624 25.9804 23.75 23.1459 23.75Z" fill="#C5C5C5"/>
</svg>
