<svg width="24" height="24" viewBox="0 0 24 24" fill="none" xmlns="http://www.w3.org/2000/svg">
<path d="M10 4H4C2.89 4 2 4.89 2 6V18C2 19.097 2.903 20 4 20H20C21.097 20 22 19.097 22 18V8C22 7.46957 21.7893 6.96086 21.4142 6.58579C21.0391 6.21071 20.5304 6 20 6H12L10 4Z" fill="#4CAF50"/>
<path d="M15.597 21.678C15.5475 21.6777 15.4982 21.6717 15.45 21.66C15.2728 21.6072 15.1218 21.4899 15.0268 21.3313C14.9319 21.1726 14.8998 20.9841 14.937 20.803L16.852 10.603C16.8692 10.5056 16.9059 10.4128 16.9598 10.3299C17.0138 10.2471 17.0839 10.176 17.166 10.121C17.2382 10.0733 17.3193 10.041 17.4045 10.026C17.4896 10.011 17.577 10.0137 17.661 10.034C17.8383 10.087 17.9894 10.2044 18.0843 10.3633C18.1793 10.5221 18.2113 10.7107 18.174 10.892L16.254 21.092C16.2372 21.1891 16.2008 21.2817 16.1472 21.3644C16.0936 21.4471 16.0238 21.518 15.942 21.573C15.8397 21.6408 15.7198 21.6772 15.597 21.678ZM19.436 20.233H19.388C19.2949 20.2246 19.2046 20.1964 19.1232 20.1504C19.0419 20.1043 18.9712 20.0415 18.916 19.966C18.8075 19.8174 18.755 19.6352 18.7679 19.4517C18.7807 19.2682 18.8579 19.0951 18.986 18.963L22.279 15.745L19 12.75C18.8682 12.6218 18.7858 12.4512 18.7675 12.2682C18.7492 12.0853 18.7962 11.9017 18.9 11.75C18.9533 11.6724 19.0225 11.607 19.103 11.5582C19.1836 11.5094 19.2736 11.4783 19.367 11.467C19.4576 11.4573 19.5492 11.4672 19.6357 11.496C19.7221 11.5248 19.8014 11.5719 19.868 11.634L23.734 15.168C23.8662 15.2959 23.9489 15.4664 23.9676 15.6494C23.9863 15.8323 23.9397 16.016 23.836 16.168C23.8068 16.21 23.7733 16.2489 23.736 16.284L19.886 20.047C19.7659 20.1659 19.604 20.2331 19.435 20.234L19.436 20.233ZM13.672 20.235C13.5028 20.2333 13.3409 20.1655 13.221 20.046L9.36703 16.281C9.29364 16.2084 9.23549 16.1219 9.19598 16.0266C9.15648 15.9312 9.13642 15.8289 9.13697 15.7257C9.13753 15.6225 9.1587 15.5205 9.19924 15.4255C9.23977 15.3306 9.29886 15.2448 9.37303 15.173L13.24 11.64C13.3054 11.5776 13.3835 11.5302 13.4689 11.501C13.5544 11.4718 13.6452 11.4616 13.735 11.471C13.925 11.493 14.096 11.596 14.205 11.754C14.3096 11.9058 14.357 12.0897 14.3389 12.2731C14.3207 12.4565 14.2383 12.6276 14.106 12.756L10.829 15.749L14.122 18.965C14.388 19.235 14.419 19.664 14.192 19.968C14.1369 20.0436 14.0663 20.1065 13.9849 20.1525C13.9035 20.1986 13.8132 20.2267 13.72 20.235H13.672Z" fill="#C8E6C9"/>
</svg>
