<svg width="20" height="20" viewBox="0 0 20 20" fill="none" xmlns="http://www.w3.org/2000/svg">
<path fill-rule="evenodd" clip-rule="evenodd" d="M10.825 0.374995C13.025 0.512495 15.0875 1.6125 16.6 3.125C18.3875 5.05 19.35 7.3875 19.35 10.1375C19.35 12.3375 18.525 14.4 17.15 16.1875C15.775 17.8375 13.85 19.075 11.65 19.4875C9.44998 19.9 7.24998 19.625 5.32498 18.525C3.39998 17.425 1.88748 15.775 1.06248 13.7125C0.237481 11.65 0.0999812 9.3125 0.787481 7.24999C1.47498 5.04999 2.71248 3.2625 4.63748 2.025C6.42498 0.787495 8.62498 0.237495 10.825 0.374995ZM11.5125 18.1125C13.3 17.7 14.95 16.7375 16.1875 15.225C17.2875 13.7125 17.975 11.925 17.8375 10C17.8375 7.79999 17.0125 5.6 15.5 4.0875C14.125 2.7125 12.475 1.8875 10.55 1.75C8.76248 1.6125 6.83748 2.025 5.32498 3.125C3.81248 4.225 2.71248 5.7375 2.16248 7.6625C1.61248 9.45 1.61248 11.375 2.43748 13.1625C3.26248 14.95 4.49998 16.325 6.14998 17.2875C7.79998 18.25 9.72498 18.525 11.5125 18.1125ZM9.86247 9.31252L13.1625 5.87502L14.125 6.83751L10.825 10.275L14.125 13.7125L13.1625 14.675L9.86247 11.2375L6.56247 14.675L5.59997 13.7125L8.89997 10.275L5.59997 6.83751L6.56247 5.87502L9.86247 9.31252Z" fill="#F48771"/>
</svg>
