<svg width="23" height="26" viewBox="0 0 23 26" fill="none" xmlns="http://www.w3.org/2000/svg">
<path fill-rule="evenodd" clip-rule="evenodd" d="M16.375 4.40313H20.25H22.1875V6.33461H20.25V23.718L18.3125 25.6494H4.75L2.8125 23.718V6.33461H0.875V4.40313H6.6875V2.47164C6.6875 1.95938 6.89154 1.46801 7.25489 1.10579C7.61824 0.743566 8.11114 0.540161 8.625 0.540161H14.4375C14.9514 0.540161 15.4443 0.743566 15.8076 1.10579C16.171 1.46801 16.375 1.95938 16.375 2.47164V4.40313ZM14.4375 2.47164H8.625V4.40313H14.4375V2.47164ZM4.75 23.718H18.3125V6.33461H4.75V23.718ZM8.625 8.26609H6.6875V21.7865H8.625V8.26609ZM10.5625 8.26609H12.5V21.7865H10.5625V8.26609ZM14.4375 8.26609H16.375V21.7865H14.4375V8.26609Z" fill="#C5C5C5"/>
</svg>
