<svg width="22" height="22" viewBox="0 0 22 22" fill="none" xmlns="http://www.w3.org/2000/svg">
<path fill-rule="evenodd" clip-rule="evenodd" d="M17.875 12.2375C18.0125 13.0625 18.15 13.75 18.425 14.575L19.25 16.9125L18.5625 17.875H13.75C13.75 18.5625 13.475 19.25 12.925 19.8C12.375 20.35 11.6875 20.625 11 20.625C10.3125 20.625 9.4875 20.35 9.075 19.8C8.525 19.25 8.25 18.5625 8.25 17.875H3.4375L2.75 16.9125L3.575 14.575C3.85 13.475 4.125 12.375 4.125 11.275V8.25C4.125 7.2875 4.2625 6.325 4.675 5.5C5.0875 4.5375 5.6375 3.85 6.325 3.1625C7.0125 2.475 7.8375 2.0625 8.8 1.7875C9.4875 1.5125 10.3125 1.375 11 1.375C10.725 1.7875 10.45 2.33749 10.175 2.88749L10.175 2.8875C9.9 2.8875 9.625 2.8875 9.2125 3.1625C8.525 3.3 7.8375 3.7125 7.2875 4.2625C6.7375 4.675 6.1875 5.3625 5.9125 6.05C5.6375 6.7375 5.5 7.425 5.5 8.25V11.275C5.5 12.5125 5.225 13.75 4.95 14.9875L4.4 16.5H17.6L17.05 14.9875C16.8089 14.2641 16.6734 13.4349 16.551 12.6854C16.5339 12.5802 16.5169 12.4766 16.5 12.375C17.05 12.375 17.4625 12.375 17.875 12.2375ZM11 19.25C11.275 19.25 11.6875 19.1125 11.9625 18.8375C12.2375 18.5625 12.375 18.2875 12.375 17.875H9.625C9.625 18.2875 9.7625 18.5625 10.0375 18.8375C10.3125 19.1125 10.725 19.25 11 19.25ZM20.625 5.5C20.625 7.77817 18.7782 9.625 16.5 9.625C14.2218 9.625 12.375 7.77817 12.375 5.5C12.375 3.22183 14.2218 1.375 16.5 1.375C18.7782 1.375 20.625 3.22183 20.625 5.5Z" fill="#C5C5C5"/>
</svg>
