<svg width="19" height="19" viewBox="0 0 19 19" fill="none" xmlns="http://www.w3.org/2000/svg">
<path d="M5.12489 1.63968C6.41992 0.774361 7.94247 0.3125 9.5 0.3125C11.5879 0.314834 13.5895 1.14527 15.0659 2.62161C16.5422 4.09796 17.3727 6.09964 17.375 8.1875C17.375 9.74503 16.9131 11.2676 16.0478 12.5626C15.1825 13.8576 13.9526 14.867 12.5136 15.463C12.3868 15.5156 12.2588 15.5647 12.1299 15.6104V15.5518C12.1506 15.5328 12.171 15.5134 12.1909 15.4934C12.5552 15.1291 12.7599 14.635 12.7599 14.1198V13.9404C13.2736 13.649 13.7504 13.2877 14.1753 12.8628C15.4154 11.6227 16.113 9.94129 16.115 8.1875C16.115 6.87918 15.727 5.60023 15.0002 4.5124C14.2733 3.42457 13.2402 2.57671 12.0315 2.07604C10.8227 1.57536 9.49266 1.44436 8.20948 1.69961C6.9263 1.95485 5.74762 2.58486 4.82249 3.50999C3.89737 4.43511 3.26735 5.61379 3.01211 6.89698C2.75687 8.18016 2.88787 9.51022 3.38854 10.7189C3.88921 11.9277 4.73707 12.9608 5.82491 13.6877C5.9536 13.7737 6.08497 13.8549 6.21875 13.9313V14.1198C6.21875 14.635 6.4234 15.1291 6.78769 15.4934C6.80766 15.5134 6.82802 15.5328 6.84875 15.5518V15.6028C5.75619 15.2122 4.75872 14.5831 3.93154 13.756C2.8302 12.6546 2.08018 11.2514 1.77632 9.72383C1.47246 8.19623 1.62841 6.61283 2.22445 5.17387C2.82049 3.7349 3.82985 2.50499 5.12489 1.63968Z" fill="#C5C5C5"/>
<path d="M11.2629 14.5653C11.1447 14.6835 10.9845 14.7498 10.8174 14.7498V18.0573C10.8174 18.2244 10.751 18.3847 10.6329 18.5028C10.5147 18.621 10.3545 18.6873 10.1874 18.6873H8.79125C8.80631 18.6873 8.78587 18.6819 8.74624 18.6713C8.64756 18.645 8.43005 18.5871 8.34577 18.5028C8.22762 18.3847 8.16125 18.2244 8.16125 18.0573V14.7498C7.99416 14.7498 7.83392 14.6835 7.71577 14.5653C7.71214 14.5617 7.70857 14.558 7.70504 14.5543C7.59362 14.4373 7.53125 14.2818 7.53125 14.1198V11.4688C7.53125 11.3329 7.55189 11.2019 7.5902 11.0786C7.75631 10.5443 8.25472 10.1562 8.84375 10.1562H10.1349C10.7278 10.1562 11.2289 10.5494 11.3917 11.0893C11.4279 11.2094 11.4474 11.3368 11.4474 11.4688V14.1198C11.4474 14.2844 11.3829 14.4424 11.2681 14.56L11.2629 14.5653Z" fill="#C5C5C5"/>
<path d="M12.9649 8.18744C12.9644 8.87688 12.7586 9.54503 12.3814 10.1101C12.6216 10.5065 12.7599 10.9715 12.7599 11.4688V11.6077C13.0101 11.3693 13.2346 11.1028 13.4286 10.8125C13.9478 10.0355 14.2249 9.12195 14.2249 8.18744C14.2233 6.9348 13.7249 5.73395 12.8392 4.8482C11.9534 3.96245 10.7526 3.4641 9.49994 3.46244C8.56542 3.46244 7.65189 3.73955 6.87487 4.25874C6.09785 4.77793 5.49223 5.51588 5.13461 6.37926C4.77698 7.24264 4.68341 8.19268 4.86573 9.10924C5.04804 10.0258 5.49806 10.8677 6.15886 11.5285C6.17866 11.5483 6.19863 11.5679 6.21875 11.5874V11.4688C6.21875 10.9649 6.36073 10.4941 6.60687 10.0944C6.48653 9.91179 6.38318 9.71739 6.2987 9.51343C6.03644 8.88029 5.96782 8.18359 6.10152 7.51145C6.23522 6.8393 6.56522 6.2219 7.04981 5.73731C7.5344 5.25272 8.15181 4.92271 8.82395 4.78902C9.49609 4.65532 10.1928 4.72394 10.8259 4.98619C11.4591 5.24845 12.0002 5.69257 12.381 6.26238C12.7617 6.8322 12.9649 7.50212 12.9649 8.18744Z" fill="#C5C5C5"/>
<path d="M10.8125 8.1875C10.8125 8.91237 10.2249 9.5 9.5 9.5C8.77513 9.5 8.1875 8.91237 8.1875 8.1875C8.1875 7.46263 8.77513 6.875 9.5 6.875C10.2249 6.875 10.8125 7.46263 10.8125 8.1875Z" fill="#C5C5C5"/>
</svg>
