<svg width="24" height="24" viewBox="0 0 24 24" fill="none" xmlns="http://www.w3.org/2000/svg">
<path d="M10 4H4C2.89 4 2 4.89 2 6V18C2 19.097 2.903 20 4 20H20C21.097 20 22 19.097 22 18V8C22 7.46957 21.7893 6.96086 21.4142 6.58579C21.0391 6.21071 20.5304 6 20 6H12L10 4Z" fill="#0288D1"/>
<path fill-rule="evenodd" clip-rule="evenodd" d="M17.66 10.789C17.4912 10.7738 17.321 10.792 17.1592 10.8427C16.9975 10.8934 16.8474 10.9756 16.7175 11.0845C16.5876 11.1934 16.4804 11.3269 16.4023 11.4773C16.3241 11.6277 16.2764 11.7921 16.262 11.961L16.102 13.823H17.918V15.111H15.985L15.702 18.376C15.6537 18.9139 15.4377 19.423 15.0845 19.8315C14.7313 20.2399 14.2586 20.5271 13.7333 20.6524C13.208 20.7778 12.6567 20.7349 12.157 20.5299C11.6574 20.3249 11.2349 19.9682 10.949 19.51L11.915 18.544C11.9654 18.7049 12.0471 18.8543 12.1554 18.9835C12.2637 19.1127 12.3964 19.2193 12.546 19.2971C12.6956 19.3749 12.8591 19.4223 13.0271 19.4367C13.1951 19.4511 13.3643 19.4322 13.525 19.381C14.027 19.226 14.382 18.781 14.427 18.261L14.697 15.111H12.765V13.823H14.813L14.987 11.845C15.0463 11.1639 15.3731 10.5342 15.8959 10.0937C16.4187 9.65319 17.0947 9.4379 17.776 9.49499C18.587 9.56499 19.322 10.016 19.746 10.712L18.781 11.678C18.7027 11.4357 18.5545 11.222 18.355 11.0638C18.1555 10.9056 17.9137 10.81 17.66 10.789ZM23.83 16.173L22.922 15.265L21.099 17.088L19.277 15.265L18.356 16.173L20.191 18.009L18.356 19.819L19.276 20.727L21.099 18.904L22.922 20.727L23.83 19.819L22.007 18.009L23.83 16.173Z" fill="#B3E5FC"/>
</svg>
