<svg width="22" height="21" viewBox="0 0 22 21" fill="none" xmlns="http://www.w3.org/2000/svg">
<path fill-rule="evenodd" clip-rule="evenodd" d="M10.9664 0C4.91131 0 0 4.81879 0 10.7598C0 15.5126 3.16208 19.5392 7.46789 20.9915C8.00612 21.0575 8.20795 20.7274 8.20795 20.4634C8.20795 20.1993 8.20795 19.5392 8.20795 18.6151C5.18043 19.2752 4.50764 17.1628 4.50764 17.1628C4.0367 15.9086 3.29664 15.5786 3.29664 15.5786C2.28746 14.9185 3.36391 14.9185 3.36391 14.9185C4.44037 14.9845 5.04587 16.0406 5.04587 16.0406C6.05505 17.6909 7.60245 17.2288 8.20795 16.9648C8.27523 16.2387 8.61162 15.7766 8.88073 15.5126C6.45872 15.2485 3.90214 14.3244 3.90214 10.1657C3.90214 8.97748 4.30581 8.05333 5.04587 7.2612C4.97859 7.06316 4.57492 5.94098 5.18043 4.48874C5.18043 4.48874 6.12232 4.2247 8.20795 5.61092C9.08257 5.34688 10.0245 5.28087 10.9664 5.28087C11.9083 5.28087 12.8502 5.41289 13.7248 5.61092C15.8104 4.2247 16.7523 4.48874 16.7523 4.48874C17.3578 5.94098 16.9541 7.06316 16.8869 7.32721C17.5596 8.05333 18.0306 9.04349 18.0306 10.2317C18.0306 14.3904 15.474 15.2485 13.052 15.5126C13.4557 15.8426 13.792 16.5027 13.792 17.4929C13.792 18.9451 13.792 20.0673 13.792 20.4634C13.792 20.7274 13.9939 21.0575 14.5321 20.9915C18.9052 19.5392 22 15.5126 22 10.7598C21.9327 4.81879 17.0214 0 10.9664 0Z" fill="#C5C5C5"/>
</svg>
