<svg width="20" height="20" viewBox="0 0 20 20" fill="none" xmlns="http://www.w3.org/2000/svg">
<path fill-rule="evenodd" clip-rule="evenodd" d="M16.5416 7.29167L20 7.9833V12.0167L16.5416 12.7083L18.5 15.6417L15.6417 18.5L12.7083 16.5416L12.0167 20H7.9833L7.29167 16.5416L4.35832 18.5L1.50004 15.6417L3.45835 12.7083L0 12.0167V7.9833L3.45835 7.29167L1.50004 4.35832L4.35832 1.50004L7.29167 3.45835L7.9833 0H12.0167L12.7083 3.45835L15.6417 1.50004L18.5 4.35832L16.5416 7.29167ZM15.2334 11.5166L18.5667 10.8417V9.17501L15.2334 8.49996L14.7833 7.41669L16.6917 4.55831L15.5 3.3667L12.6417 5.27496L11.5583 4.82503L10.8834 1.4917H9.21671L8.54167 4.82503L7.45829 5.27496L4.60002 3.3667L3.4083 4.55831L5.31667 7.41669L4.86664 8.49996L1.5333 9.17501V10.8417L4.86664 11.5166L5.31667 12.6L3.4083 15.4584L4.60002 16.65L7.45829 14.7416L8.54167 15.1917L9.21671 18.525H10.8834L11.5583 15.1917L12.6417 14.7416L15.5 16.65L16.6917 15.4584L14.7833 12.6L15.2334 11.5166ZM8.41196 7.62339C8.88201 7.30931 9.43467 7.14162 9.99999 7.14162C10.7574 7.14382 11.4832 7.4457 12.0187 7.98126C12.5543 8.51683 12.8562 9.2426 12.8584 10C12.8584 10.5653 12.6907 11.118 12.3766 11.588C12.0625 12.0581 11.6161 12.4244 11.0938 12.6408C10.5716 12.8571 9.9968 12.9137 9.44233 12.8034C8.88787 12.6932 8.37856 12.4209 7.97881 12.0212C7.57907 11.6214 7.30683 11.1121 7.19654 10.5577C7.08625 10.0032 7.14286 9.42844 7.3592 8.90615C7.57554 8.38386 7.94191 7.93747 8.41196 7.62339ZM9.20826 11.1848C9.4426 11.3414 9.71815 11.425 9.99999 11.425C10.1874 11.4261 10.3733 11.39 10.5467 11.3188C10.7201 11.2475 10.8776 11.1427 11.0101 11.0101C11.1427 10.8776 11.2475 10.7201 11.3188 10.5467C11.39 10.3733 11.4261 10.1874 11.425 10C11.425 9.71816 11.3414 9.44261 11.1848 9.20827C11.0282 8.97393 10.8057 8.79133 10.5453 8.68347C10.285 8.57562 9.9984 8.54741 9.72198 8.6024C9.44555 8.65738 9.19169 8.79312 8.9924 8.99241C8.79311 9.1917 8.65737 9.44556 8.60239 9.72198C8.5474 9.99841 8.57561 10.285 8.68346 10.5453C8.79132 10.8057 8.97392 11.0282 9.20826 11.1848Z" fill="#C5C5C5"/>
</svg>
