<svg width="25" height="25" viewBox="0 0 25 25" fill="none" xmlns="http://www.w3.org/2000/svg">
<path fill-rule="evenodd" clip-rule="evenodd" d="M0 5C0 2.23858 2.23858 0 5 0H20C22.7614 0 25 2.23858 25 5V20C25 22.7614 22.7614 25 20 25H5C2.23858 25 0 22.7614 0 20V5ZM1.78571 18.2143C1.78571 20.9757 4.02429 23.2143 6.78571 23.2143H18.2143C20.9757 23.2143 23.2143 20.9757 23.2143 18.2143V6.78571C23.2143 4.02429 20.9757 1.78571 18.2143 1.78571H6.78571C4.02429 1.78571 1.78571 4.02429 1.78571 6.78571V18.2143ZM5.35726 8.40552L6.61995 7.14283L12.9334 13.4563L11.6707 14.719L11.6707 14.7189L6.61979 19.7698L5.3571 18.5071L10.408 13.4562L5.35726 8.40552Z" fill="#C5C5C5"/>
</svg>
