<svg width="24" height="24" viewBox="0 0 24 24" fill="none" xmlns="http://www.w3.org/2000/svg">
<path d="M10 4H4C2.89 4 2 4.89 2 6V18C2 19.097 2.903 20 4 20H20C21.097 20 22 19.097 22 18V8C22 7.46957 21.7893 6.96086 21.4142 6.58579C21.0391 6.21071 20.5304 6 20 6H12L10 4Z" fill="#039BE5"/>
<path fill-rule="evenodd" clip-rule="evenodd" d="M20.036 16.746C20.086 16.338 20.123 15.929 20.123 15.509C20.123 15.089 20.086 14.679 20.036 14.271H22.127C22.226 14.667 22.287 15.081 22.287 15.509C22.2845 15.9263 22.2307 16.3418 22.127 16.746H20.036ZM18.941 20.186C19.312 19.499 19.597 18.756 19.795 17.983H21.62C21.0206 19.0153 20.0696 19.7974 18.941 20.186ZM18.786 16.746H15.891C15.829 16.338 15.792 15.929 15.792 15.509C15.792 15.089 15.829 14.674 15.892 14.271H18.786C18.842 14.674 18.886 15.088 18.886 15.509C18.886 15.93 18.842 16.338 18.786 16.746ZM17.339 20.433C16.8143 19.6861 16.4151 18.8585 16.157 17.983H18.52C18.2622 18.8585 17.8633 19.686 17.339 20.433ZM14.864 13.034H13.058C13.6511 11.9994 14.6011 11.2165 15.73 10.832C15.36 11.518 15.08 12.261 14.864 13.034ZM13.058 17.984H14.864C15.081 18.757 15.359 19.499 15.73 20.186C14.6033 19.797 13.6546 19.0149 13.058 17.983V17.984ZM12.55 16.746C12.4462 16.3418 12.3925 15.9263 12.39 15.509C12.3924 15.0913 12.4462 14.6755 12.55 14.271H14.641C14.592 14.68 14.555 15.088 14.555 15.509C14.555 15.93 14.592 16.338 14.641 16.746H12.55ZM17.339 10.578C17.8633 11.3271 18.2622 12.1567 18.52 13.034H16.157C16.4151 12.1566 16.8143 11.3271 17.339 10.578ZM21.619 13.034H19.795C19.6012 12.2679 19.3144 11.5284 18.941 10.832C20.0707 11.2181 21.0224 12.0004 21.62 13.034H21.619ZM17.339 9.32199C15.6986 9.32358 14.1258 9.97593 12.9659 11.1359C11.8059 12.2958 11.1536 13.8686 11.152 15.509C11.152 16.3214 11.312 17.1259 11.623 17.8765C11.9339 18.6271 12.3896 19.3091 12.9642 19.8835C13.5387 20.4579 14.2208 20.9136 14.9714 21.2244C15.722 21.5352 16.5265 21.6951 17.339 21.695C18.9796 21.695 20.553 21.0433 21.7131 19.8832C22.8732 18.7231 23.525 17.1496 23.525 15.509C23.5251 14.6965 23.3652 13.892 23.0544 13.1414C22.7436 12.3908 22.2879 11.7087 21.7135 11.1342C21.1391 10.5597 20.4571 10.1039 19.7065 9.79297C18.9559 9.48203 18.1514 9.32199 17.339 9.32199Z" fill="#B3E5FC"/>
</svg>
