<svg width="36" height="36" viewBox="0 0 36 36" fill="none" xmlns="http://www.w3.org/2000/svg">
<path fill-rule="evenodd" clip-rule="evenodd" d="M29.775 13.125L36 14.3699V21.6301L29.775 22.875L33.2999 28.155L28.155 33.2999L22.875 29.775L21.6301 36H14.3699L13.125 29.775L7.84497 33.2999L2.70007 28.155L6.22504 22.875L0 21.6301V14.3699L6.22504 13.125L2.70007 7.84497L7.84497 2.70007L13.125 6.22504L14.3699 0H21.6301L22.875 6.22504L28.155 2.70007L33.2999 7.84497L29.775 13.125ZM27.42 20.7299L33.42 19.515V16.515L27.42 15.2999L26.61 13.35L30.045 8.20496L27.9 6.06006L22.7551 9.49493L20.805 8.68506L19.5901 2.68506H16.5901L15.375 8.68506L13.4249 9.49493L8.28003 6.06006L6.13495 8.20496L9.57001 13.35L8.75995 15.2999L2.75995 16.515V19.515L8.75995 20.7299L9.57001 22.68L6.13495 27.8251L8.28003 29.97L13.4249 26.5349L15.375 27.345L16.5901 33.345H19.5901L20.805 27.345L22.7551 26.5349L27.9 29.97L30.045 27.8251L26.61 22.68L27.42 20.7299ZM15.1415 13.7221C15.9876 13.1568 16.9824 12.8549 18 12.8549C19.3633 12.8589 20.6697 13.4023 21.6337 14.3663C22.5977 15.3303 23.1411 16.6367 23.1451 18C23.1451 19.0176 22.8432 20.0124 22.2779 20.8585C21.7125 21.7046 20.909 22.364 19.9689 22.7534C19.0288 23.1428 17.9942 23.2447 16.9962 23.0462C15.9982 22.8477 15.0814 22.3577 14.3619 21.6381C13.6423 20.9186 13.1523 20.0018 12.9538 19.0038C12.7553 18.0058 12.8572 16.9712 13.2466 16.0311C13.636 15.0909 14.2954 14.2874 15.1415 13.7221ZM16.5749 20.1326C16.9967 20.4145 17.4927 20.5649 18 20.5649C18.3374 20.5669 18.6719 20.502 18.984 20.3738C19.2961 20.2456 19.5796 20.0568 19.8182 19.8182C20.0568 19.5797 20.2456 19.2961 20.3738 18.984C20.502 18.6719 20.5669 18.3374 20.5649 18C20.5649 17.4927 20.4145 16.9967 20.1326 16.5749C19.8508 16.1531 19.4503 15.8244 18.9816 15.6302C18.5129 15.4361 17.9971 15.3853 17.4996 15.4843C17.002 15.5833 16.545 15.8276 16.1863 16.1863C15.8276 16.5451 15.5833 17.002 15.4843 17.4996C15.3853 17.9971 15.4361 18.5129 15.6302 18.9816C15.8244 19.4503 16.1531 19.8508 16.5749 20.1326Z" fill="#C5C5C5"/>
</svg>
