<svg width="22" height="22" viewBox="0 0 22 22" fill="none" xmlns="http://www.w3.org/2000/svg">
<path fill-rule="evenodd" clip-rule="evenodd" d="M11 1.37918C8.44729 1.37918 5.99911 2.3933 4.19407 4.19833C2.38903 6.00337 1.375 8.45147 1.375 11.0042V11.5955C1.49875 13.6718 4.00125 14.0567 5.5 12.5579C5.99016 12.1223 6.62824 11.8904 7.28371 11.9097C7.93918 11.929 8.56252 12.198 9.02621 12.6617C9.4899 13.1254 9.75886 13.7488 9.77816 14.4043C9.79746 15.0597 9.56563 15.6978 9.13002 16.188C7.61752 17.783 8.04375 20.4091 10.23 20.5879H11.055C13.6077 20.5879 16.0559 19.5739 17.8609 17.7689C19.6659 15.9639 20.68 13.5156 20.68 10.9629C20.68 8.41018 19.6659 5.96208 17.8609 4.15704C16.0559 2.35201 13.6077 1.33789 11.055 1.33789L11 1.37918ZM11 19.2542H10.285C10.1028 19.2485 9.92815 19.1805 9.78999 19.0617C9.68071 18.9485 9.6087 18.8046 9.58371 18.6493C9.53989 18.3813 9.56076 18.1066 9.64447 17.8483C9.72818 17.59 9.87235 17.3555 10.065 17.1642C10.7807 16.4276 11.181 15.4411 11.181 14.4142C11.181 13.3872 10.7807 12.4007 10.065 11.6642C9.69854 11.2975 9.26336 11.0066 8.78442 10.8081C8.30549 10.6097 7.79215 10.5075 7.27372 10.5075C6.75529 10.5075 6.24195 10.6097 5.76302 10.8081C5.28408 11.0066 4.84899 11.2975 4.48251 11.6642C4.33219 11.8398 4.13997 11.9749 3.92367 12.0566C3.70736 12.1383 3.47392 12.164 3.24498 12.1316C3.1294 12.1095 3.02366 12.0518 2.94252 11.9666C2.84805 11.8558 2.79889 11.7135 2.80497 11.568V11.0592C2.80497 9.42754 3.28889 7.83238 4.19541 6.47568C5.10193 5.11897 6.39037 4.06157 7.89786 3.43715C9.40535 2.81273 11.0642 2.64935 12.6645 2.96768C14.2649 3.28601 15.7349 4.07177 16.8886 5.22556C18.0424 6.37934 18.8281 7.84941 19.1464 9.44975C19.4648 11.0501 19.3014 12.7088 18.677 14.2163C18.0525 15.7238 16.9951 17.0123 15.6384 17.9188C14.2817 18.8253 12.6867 19.3092 11.055 19.3092L11 19.2542ZM12.375 5.49562C12.375 6.25501 11.7594 6.87062 11 6.87062C10.2406 6.87062 9.62499 6.25501 9.62499 5.49562C9.62499 4.73623 10.2406 4.12062 11 4.12062C11.7594 4.12062 12.375 4.73623 12.375 5.49562ZM16.5 15.13C16.5 15.8894 15.8844 16.505 15.125 16.505C14.3656 16.505 13.75 15.8894 13.75 15.13C13.75 14.3706 14.3656 13.755 15.125 13.755C15.8844 13.755 16.5 14.3706 16.5 15.13ZM6.875 8.25569C7.63439 8.25569 8.25 7.64008 8.25 6.88069C8.25 6.1213 7.63439 5.50569 6.875 5.50569C6.11561 5.50569 5.5 6.1213 5.5 6.88069C5.5 7.64008 6.11561 8.25569 6.875 8.25569ZM16.5 6.88069C16.5 7.64008 15.8844 8.25569 15.125 8.25569C14.3656 8.25569 13.75 7.64008 13.75 6.88069C13.75 6.1213 14.3656 5.50569 15.125 5.50569C15.8844 5.50569 16.5 6.1213 16.5 6.88069ZM17.8751 10.9991C17.8751 11.7585 17.2595 12.3741 16.5001 12.3741C15.7407 12.3741 15.1251 11.7585 15.1251 10.9991C15.1251 10.2398 15.7407 9.62415 16.5001 9.62415C17.2595 9.62415 17.8751 10.2398 17.8751 10.9991Z" fill="#C5C5C5"/>
</svg>
