<svg width="22" height="22" viewBox="0 0 22 22" fill="none" xmlns="http://www.w3.org/2000/svg">
<path d="M10.291 14.2656C11.0143 14.5521 11.6732 14.9316 12.2676 15.4043C12.862 15.877 13.3704 16.4248 13.793 17.0479C14.2155 17.6709 14.5413 18.3405 14.7705 19.0566C14.9997 19.7728 15.1178 20.5247 15.125 21.3125V22H13.75V21.3125C13.75 20.4603 13.5889 19.6582 13.2666 18.9062C12.9443 18.1543 12.5003 17.499 11.9346 16.9404C11.3688 16.3818 10.7135 15.9414 9.96875 15.6191C9.22396 15.2969 8.42188 15.1322 7.5625 15.125C6.71029 15.125 5.9082 15.2861 5.15625 15.6084C4.4043 15.9307 3.74902 16.3747 3.19043 16.9404C2.63184 17.5062 2.19141 18.1615 1.86914 18.9062C1.54688 19.651 1.38216 20.4531 1.375 21.3125V22H0V21.3125C0 20.5319 0.114583 19.7799 0.34375 19.0566C0.572917 18.3333 0.902344 17.6637 1.33203 17.0479C1.76172 16.432 2.27018 15.8877 2.85742 15.415C3.44466 14.9424 4.10352 14.5592 4.83398 14.2656C4.51172 14.0436 4.22168 13.7858 3.96387 13.4922C3.70605 13.1986 3.48763 12.8835 3.30859 12.5469C3.12956 12.2103 2.99349 11.8522 2.90039 11.4727C2.80729 11.0931 2.75716 10.7064 2.75 10.3125C2.75 9.64648 2.87533 9.02344 3.12598 8.44336C3.37663 7.86328 3.72038 7.35482 4.15723 6.91797C4.59408 6.48112 5.10254 6.13737 5.68262 5.88672C6.2627 5.63607 6.88932 5.50716 7.5625 5.5C8.22852 5.5 8.85156 5.62533 9.43164 5.87598C10.0117 6.12663 10.5202 6.47038 10.957 6.90723C11.3939 7.34408 11.7376 7.85254 11.9883 8.43262C12.2389 9.0127 12.3678 9.63932 12.375 10.3125C12.375 10.7064 12.3285 11.0895 12.2354 11.4619C12.1423 11.8343 12.0026 12.1924 11.8164 12.5361C11.6302 12.8799 11.4118 13.1986 11.1611 13.4922C10.9105 13.7858 10.6204 14.0436 10.291 14.2656ZM7.5625 13.75C8.03516 13.75 8.47917 13.6605 8.89453 13.4814C9.3099 13.3024 9.67155 13.0589 9.97949 12.751C10.2874 12.443 10.5345 12.0778 10.7207 11.6553C10.9069 11.2327 11 10.7852 11 10.3125C11 9.83984 10.9105 9.39583 10.7314 8.98047C10.5524 8.5651 10.3053 8.20345 9.99023 7.89551C9.67513 7.58756 9.3099 7.34049 8.89453 7.1543C8.47917 6.9681 8.03516 6.875 7.5625 6.875C7.08984 6.875 6.64583 6.96452 6.23047 7.14355C5.8151 7.32259 5.44987 7.56966 5.13477 7.88477C4.81966 8.19987 4.57259 8.5651 4.39355 8.98047C4.21452 9.39583 4.125 9.83984 4.125 10.3125C4.125 10.7852 4.21452 11.2292 4.39355 11.6445C4.57259 12.0599 4.81608 12.4251 5.12402 12.7402C5.43197 13.0553 5.7972 13.3024 6.21973 13.4814C6.64225 13.6605 7.08984 13.75 7.5625 13.75ZM22 0V11H19.25L15.125 15.125V11H13.75V9.625H16.5V11.8057L18.6807 9.625H20.625V1.375H6.875V3.8457C6.64583 3.87435 6.41667 3.91016 6.1875 3.95312C5.95833 3.99609 5.72917 4.06055 5.5 4.14648V0H22Z" fill="#C5C5C5"/>
</svg>
