<svg width="31" height="32" viewBox="0 0 31 32" fill="none" xmlns="http://www.w3.org/2000/svg">
<path fill-rule="evenodd" clip-rule="evenodd" d="M19.375 6.40313H23.25H25.1875V8.33461H23.25V25.718L21.3125 27.6494H7.75L5.8125 25.718V8.33461H3.875V6.40313H9.6875V4.47164C9.6875 3.95938 9.89154 3.46801 10.2549 3.10579C10.6182 2.74357 11.1111 2.54016 11.625 2.54016H17.4375C17.9514 2.54016 18.4443 2.74357 18.8076 3.10579C19.171 3.46801 19.375 3.95938 19.375 4.47164V6.40313ZM17.4375 4.47164H11.625V6.40313H17.4375V4.47164ZM7.75 25.718H21.3125V8.33461H7.75V25.718ZM11.625 10.2661H9.6875V23.7865H11.625V10.2661ZM13.5625 10.2661H15.5V23.7865H13.5625V10.2661ZM17.4375 10.2661H19.375V23.7865H17.4375V10.2661Z" fill="#C5C5C5"/>
</svg>
