<svg width="19" height="16" viewBox="0 0 19 16" fill="none" xmlns="http://www.w3.org/2000/svg">
<path d="M18.6875 1.96674C18.4363 2.34357 18.1521 2.69496 17.8352 3.02096C17.5181 3.34695 17.1742 3.64453 16.8033 3.91369C16.8093 3.99744 16.8138 4.07968 16.8168 4.16042C16.8198 4.24118 16.8213 4.32342 16.8213 4.40716C16.8213 5.16082 16.7405 5.90551 16.579 6.64123C16.4175 7.37694 16.1843 8.08873 15.8791 8.7766C15.4366 9.77551 14.8834 10.6682 14.2194 11.4548C13.5554 12.2414 12.8033 12.9068 11.9629 13.4511C11.1225 13.9954 10.2058 14.4111 9.21289 14.6983C8.21997 14.9853 7.1792 15.1289 6.09057 15.1289C5.06175 15.1289 4.05838 14.9869 3.08041 14.7027C2.10245 14.4186 1.1798 13.9954 0.3125 13.4332C0.605594 13.469 0.904661 13.487 1.20971 13.487C2.06507 13.487 2.892 13.3494 3.69052 13.0743C4.48903 12.7991 5.22326 12.3984 5.89318 11.8719C5.49243 11.866 5.10662 11.7987 4.73577 11.6701C4.36492 11.5416 4.02547 11.362 3.71743 11.1318C3.40938 10.9015 3.14022 10.6278 2.90994 10.3108C2.67965 9.99383 2.5017 9.64392 2.37609 9.2611C2.49571 9.27904 2.61385 9.294 2.73049 9.30596C2.84713 9.31793 2.96526 9.3239 3.08489 9.3239C3.41986 9.3239 3.74882 9.27905 4.07183 9.18933C3.6292 9.09961 3.22397 8.9411 2.8561 8.7138C2.48824 8.4865 2.16973 8.20987 1.90057 7.88388C1.6314 7.55789 1.42205 7.19003 1.27251 6.7803C1.12298 6.37057 1.04821 5.94141 1.04821 5.49279V5.44793C1.57457 5.74701 2.1458 5.90551 2.76189 5.92346C2.4987 5.74402 2.26394 5.53915 2.05759 5.30886C1.85122 5.07858 1.67627 4.82885 1.5327 4.55968C1.38916 4.29053 1.2785 4.00641 1.20073 3.70733C1.12298 3.40827 1.08411 3.10022 1.08411 2.7832C1.08411 2.44824 1.12597 2.12076 1.20971 1.80076C1.29345 1.48074 1.42205 1.17719 1.59551 0.890079C2.07403 1.48224 2.60638 2.01309 3.19256 2.48264C3.77873 2.95217 4.4023 3.35443 5.06325 3.68939C5.7242 4.02436 6.41656 4.28903 7.14031 4.48343C7.86406 4.67782 8.60577 4.79297 9.3654 4.82885C9.32952 4.69129 9.3041 4.54922 9.28913 4.40268C9.27418 4.25613 9.2667 4.11109 9.2667 3.96752C9.2667 3.44714 9.3654 2.95816 9.56279 2.50058C9.76018 2.04299 10.0293 1.64374 10.3703 1.3028C10.7112 0.961847 11.1105 0.692692 11.5681 0.495306C12.0257 0.297919 12.5147 0.199219 13.035 0.199219C13.5614 0.199219 14.0624 0.302394 14.5379 0.508759C15.0134 0.715123 15.4305 1.0097 15.7895 1.39252C16.2141 1.30878 16.6254 1.19064 17.0231 1.03812C17.4209 0.885591 17.8052 0.698664 18.176 0.477351C18.0385 0.914006 17.8277 1.31177 17.5435 1.67065C17.2594 2.02954 16.92 2.32563 16.5252 2.5589C17.2788 2.46917 17.9996 2.27179 18.6875 1.96674Z" fill="#C5C5C5"/>
</svg>
