<svg width="16" height="10" viewBox="0 0 16 10" fill="none" xmlns="http://www.w3.org/2000/svg">
<path d="M16 5.5C16 5.77604 15.901 6.01302 15.7031 6.21094C15.5104 6.40365 15.276 6.5 15 6.5H14V7.55469C14 7.88281 13.9323 8.19531 13.7969 8.49219C13.6667 8.78906 13.4896 9.04948 13.2656 9.27344C13.0469 9.49219 12.7891 9.66927 12.4922 9.80469C12.1953 9.9349 11.8828 10 11.5547 10H2.44531C2.11719 10 1.80469 9.9349 1.50781 9.80469C1.21094 9.66927 0.950521 9.49219 0.726562 9.27344C0.507812 9.04948 0.330729 8.78906 0.195312 8.49219C0.0651042 8.19531 0 7.88281 0 7.55469V2.44531C0 2.11719 0.0651042 1.80469 0.195312 1.50781C0.330729 1.21094 0.507812 0.953125 0.726562 0.734375C0.950521 0.510417 1.21094 0.333333 1.50781 0.203125C1.80469 0.0677083 2.11719 0 2.44531 0H11.5547C11.888 0 12.2005 0.0677083 12.4922 0.203125C12.7891 0.333333 13.0469 0.510417 13.2656 0.734375C13.4896 0.953125 13.6667 1.21094 13.7969 1.50781C13.9271 1.80469 13.9948 2.11719 14 2.44531V2.79688V3.5H15C15.1354 3.5 15.263 3.52604 15.3828 3.57812C15.5026 3.63021 15.6094 3.70312 15.7031 3.79688C15.7969 3.89062 15.8698 3.9974 15.9219 4.11719C15.974 4.23698 16 4.36458 16 4.5V5.5ZM13 2.5C13 2.29688 12.9609 2.10417 12.8828 1.92188C12.8047 1.73958 12.6953 1.58073 12.5547 1.44531C12.4193 1.30469 12.2604 1.19531 12.0781 1.11719C11.8958 1.03906 11.7031 1 11.5 1H2.5C2.29688 1 2.10417 1.03906 1.92188 1.11719C1.73958 1.19531 1.57812 1.30469 1.4375 1.44531C1.30208 1.58073 1.19531 1.73958 1.11719 1.92188C1.03906 2.10417 1 2.29688 1 2.5V7.5C1 7.70312 1.03906 7.89583 1.11719 8.07812C1.19531 8.26042 1.30208 8.42188 1.4375 8.5625C1.57812 8.69792 1.73958 8.80469 1.92188 8.88281C2.10417 8.96094 2.29688 9 2.5 9H11.5C11.7031 9 11.8958 8.96094 12.0781 8.88281C12.2604 8.80469 12.4193 8.69792 12.5547 8.5625C12.6953 8.42188 12.8047 8.26042 12.8828 8.07812C12.9609 7.89583 13 7.70312 13 7.5V2.5ZM10.25 2C10.4583 2 10.6354 2.07292 10.7812 2.21875C10.9271 2.36458 11 2.54167 11 2.75V7.25C11 7.45833 10.9271 7.63542 10.7812 7.78125C10.6354 7.92708 10.4583 8 10.25 8H2.75C2.54167 8 2.36458 7.92708 2.21875 7.78125C2.07292 7.63542 2 7.45833 2 7.25V2.75C2 2.54167 2.07292 2.36458 2.21875 2.21875C2.36458 2.07292 2.54167 2 2.75 2H10.25Z" fill="black" fill-opacity="0.8956"/>
</svg>
