<svg width="16" height="14" viewBox="0 0 16 14" fill="none" xmlns="http://www.w3.org/2000/svg">
<path d="M12 13.2422C12 13.1536 12.0156 13.0833 12.0469 13.0312C12.0833 12.974 12.1302 12.9141 12.1875 12.8516C12.2604 12.7786 12.3385 12.7109 12.4219 12.6484C12.5052 12.5807 12.5859 12.5104 12.6641 12.4375C13.0391 12.0938 13.3724 11.7135 13.6641 11.2969C13.9557 10.875 14.2005 10.4297 14.3984 9.96094C14.5964 9.49219 14.7448 9.00781 14.8438 8.50781C14.9479 8.00781 15 7.50521 15 7C15 6.5 14.9479 6 14.8438 5.5C14.7448 4.99479 14.5938 4.50781 14.3906 4.03906C14.1927 3.5651 13.9479 3.11719 13.6562 2.69531C13.3698 2.27344 13.0391 1.89323 12.6641 1.55469C12.5859 1.48177 12.5052 1.41406 12.4219 1.35156C12.3385 1.28385 12.2604 1.21354 12.1875 1.14062C12.125 1.07812 12.0781 1.02083 12.0469 0.96875C12.0156 0.916667 12 0.84375 12 0.75C12 0.609375 12.0469 0.492188 12.1406 0.398438C12.2396 0.304688 12.3594 0.257812 12.5 0.257812C12.5625 0.257812 12.6172 0.268229 12.6641 0.289062C12.7109 0.304688 12.7604 0.330729 12.8125 0.367188C13.0469 0.518229 13.2786 0.710938 13.5078 0.945312C13.737 1.17969 13.9531 1.43229 14.1562 1.70312C14.3646 1.96875 14.5547 2.24219 14.7266 2.52344C14.8984 2.80469 15.0443 3.07031 15.1641 3.32031C15.4401 3.89844 15.6484 4.4974 15.7891 5.11719C15.9297 5.73177 16 6.35938 16 7C16 7.63542 15.9297 8.26562 15.7891 8.89062C15.6484 9.51042 15.4401 10.1068 15.1641 10.6797C15.0443 10.9245 14.8984 11.1901 14.7266 11.4766C14.5547 11.7578 14.3646 12.0339 14.1562 12.3047C13.9479 12.5703 13.7292 12.8203 13.5 13.0547C13.2708 13.2891 13.0417 13.4818 12.8125 13.6328C12.7552 13.6693 12.7031 13.6979 12.6562 13.7188C12.6146 13.7344 12.5625 13.7422 12.5 13.7422C12.3646 13.7422 12.2474 13.6927 12.1484 13.5938C12.0495 13.4948 12 13.3776 12 13.2422ZM3.29688 10H1.5C1.29688 10 1.10417 9.96094 0.921875 9.88281C0.739583 9.80469 0.578125 9.69792 0.4375 9.5625C0.302083 9.42188 0.195312 9.26042 0.117188 9.07812C0.0390625 8.89583 0 8.70312 0 8.5V5.5C0 5.29688 0.0390625 5.10417 0.117188 4.92188C0.195312 4.73958 0.302083 4.58073 0.4375 4.44531C0.578125 4.30469 0.739583 4.19531 0.921875 4.11719C1.10417 4.03906 1.29688 4 1.5 4H3.29688L5.71875 1.57031C5.79167 1.4974 5.8724 1.44531 5.96094 1.41406C6.05469 1.3776 6.15104 1.35938 6.25 1.35938C6.46354 1.35938 6.64062 1.42969 6.78125 1.57031C6.92708 1.71094 7 1.88802 7 2.10156V11.8984C7 12.0026 6.97917 12.099 6.9375 12.1875C6.90104 12.276 6.84635 12.3568 6.77344 12.4297C6.70573 12.4974 6.625 12.5521 6.53125 12.5938C6.44271 12.6302 6.34896 12.6484 6.25 12.6484C6.04167 12.6484 5.86458 12.5755 5.71875 12.4297L3.29688 10ZM10.0312 11.4453C10.0312 11.3568 10.0443 11.2891 10.0703 11.2422C10.1016 11.1953 10.1458 11.138 10.2031 11.0703C10.4896 10.7474 10.7448 10.4375 10.9688 10.1406C11.1927 9.84375 11.3802 9.53906 11.5312 9.22656C11.6823 8.90885 11.7969 8.57031 11.875 8.21094C11.9583 7.85156 12 7.44792 12 7C12 6.55208 11.9583 6.14844 11.875 5.78906C11.7969 5.42969 11.6823 5.09375 11.5312 4.78125C11.3802 4.46354 11.1927 4.15625 10.9688 3.85938C10.7448 3.5625 10.4896 3.2526 10.2031 2.92969C10.1458 2.86198 10.1016 2.80469 10.0703 2.75781C10.0443 2.71094 10.0312 2.64323 10.0312 2.55469C10.0312 2.41927 10.0807 2.30469 10.1797 2.21094C10.2839 2.11198 10.4036 2.0625 10.5391 2.0625C10.6172 2.0625 10.6771 2.07292 10.7188 2.09375C10.7604 2.10938 10.8125 2.14062 10.875 2.1875C11.0312 2.30729 11.1849 2.45573 11.3359 2.63281C11.4922 2.80469 11.638 2.98958 11.7734 3.1875C11.9141 3.38542 12.0417 3.58854 12.1562 3.79688C12.2708 4 12.3672 4.19271 12.4453 4.375C12.8151 5.20833 13 6.08333 13 7C13 7.91667 12.8151 8.79167 12.4453 9.625C12.3724 9.79167 12.276 9.98177 12.1562 10.1953C12.0417 10.4036 11.9141 10.612 11.7734 10.8203C11.6328 11.0234 11.4844 11.2135 11.3281 11.3906C11.1771 11.5677 11.026 11.7083 10.875 11.8125C10.8177 11.849 10.763 11.8802 10.7109 11.9062C10.6641 11.9271 10.6068 11.9375 10.5391 11.9375C10.4036 11.9375 10.2839 11.8906 10.1797 11.7969C10.0807 11.6979 10.0312 11.5807 10.0312 11.4453ZM6 11.2891V2.70312L3.85156 4.85156C3.7526 4.95052 3.63542 5 3.5 5H1.5C1.36458 5 1.2474 5.04948 1.14844 5.14844C1.04948 5.2474 1 5.36458 1 5.5V8.5C1 8.63542 1.04948 8.7526 1.14844 8.85156C1.2474 8.95052 1.36458 9 1.5 9H3.5C3.63542 9 3.7526 9.04948 3.85156 9.14844L6 11.2891ZM8.09375 9.53906C8.09375 9.46615 8.10156 9.40885 8.11719 9.36719C8.13802 9.32552 8.16927 9.27604 8.21094 9.21875C8.33073 9.03646 8.4401 8.86198 8.53906 8.69531C8.63802 8.52344 8.72135 8.35156 8.78906 8.17969C8.85677 8.0026 8.90885 7.82031 8.94531 7.63281C8.98177 7.4401 9 7.22917 9 7C9 6.77604 8.98177 6.56771 8.94531 6.375C8.90885 6.18229 8.85677 6 8.78906 5.82812C8.72135 5.65104 8.63802 5.47917 8.53906 5.3125C8.4401 5.14062 8.33073 4.96354 8.21094 4.78125C8.16927 4.72396 8.13802 4.67448 8.11719 4.63281C8.10156 4.59115 8.09375 4.53385 8.09375 4.46094C8.09375 4.32552 8.14323 4.20833 8.24219 4.10938C8.34115 4.01042 8.45833 3.96094 8.59375 3.96094C8.68229 3.96094 8.75521 3.97656 8.8125 4.00781C8.86979 4.03906 8.92708 4.08594 8.98438 4.14844C9.15104 4.33073 9.29688 4.53646 9.42188 4.76562C9.54688 4.98958 9.65104 5.22917 9.73438 5.48438C9.82292 5.73438 9.88802 5.98958 9.92969 6.25C9.97656 6.51042 10 6.76042 10 7C10 7.22917 9.97656 7.47656 9.92969 7.74219C9.88802 8.0026 9.82292 8.26302 9.73438 8.52344C9.65104 8.77865 9.54427 9.02344 9.41406 9.25781C9.28906 9.48698 9.14583 9.6849 8.98438 9.85156C8.875 9.97135 8.74479 10.0312 8.59375 10.0312C8.45833 10.0312 8.34115 9.98438 8.24219 9.89062C8.14323 9.79167 8.09375 9.67448 8.09375 9.53906Z" fill="black" fill-opacity="0.8956"/>
</svg>
