<svg width="16" height="12" viewBox="0 0 16 12" fill="none" xmlns="http://www.w3.org/2000/svg">
<path d="M8 1C7.4375 1 6.88021 1.05729 6.32812 1.17188C5.78125 1.28125 5.25 1.44531 4.73438 1.66406C4.21875 1.8776 3.72656 2.14062 3.25781 2.45312C2.78906 2.76562 2.35677 3.1224 1.96094 3.52344C1.76302 3.72135 1.58594 3.92969 1.42969 4.14844C1.27344 4.36198 1.10677 4.57292 0.929688 4.78125C0.867188 4.85417 0.807292 4.90885 0.75 4.94531C0.692708 4.98177 0.614583 5 0.515625 5C0.375 5 0.255208 4.95312 0.15625 4.85938C0.0625 4.76042 0.015625 4.64062 0.015625 4.5C0.015625 4.40104 0.0442708 4.30729 0.101562 4.21875C0.513021 3.5625 1.01042 2.97396 1.59375 2.45312C2.18229 1.93229 2.82292 1.48958 3.51562 1.125C4.20833 0.760417 4.9349 0.481771 5.69531 0.289062C6.46094 0.0963542 7.22917 0 8 0C8.76562 0 9.53125 0.0963542 10.2969 0.289062C11.0625 0.481771 11.7891 0.760417 12.4766 1.125C13.1693 1.48958 13.8073 1.93229 14.3906 2.45312C14.9792 2.97396 15.4818 3.5625 15.8984 4.21875C15.9557 4.30729 15.9844 4.40104 15.9844 4.5C15.9844 4.64062 15.9349 4.76042 15.8359 4.85938C15.7422 4.95312 15.625 5 15.4844 5C15.3958 5 15.3177 4.98177 15.25 4.94531C15.1875 4.90365 15.1276 4.84896 15.0703 4.78125C15.013 4.70833 14.9583 4.63542 14.9062 4.5625C14.8594 4.48438 14.8073 4.40885 14.75 4.33594C14.6406 4.1901 14.526 4.05208 14.4062 3.92188C14.2865 3.78646 14.1641 3.65365 14.0391 3.52344C13.638 3.1224 13.2031 2.76562 12.7344 2.45312C12.2708 2.14062 11.7812 1.8776 11.2656 1.66406C10.7552 1.44531 10.224 1.28125 9.67188 1.17188C9.11979 1.05729 8.5625 1 8 1ZM8 4C7.61458 4 7.23177 4.04167 6.85156 4.125C6.47135 4.20833 6.10417 4.33073 5.75 4.49219C5.40104 4.64844 5.06771 4.84115 4.75 5.07031C4.4375 5.29948 4.15365 5.55729 3.89844 5.84375C3.77344 5.98438 3.65885 6.13281 3.55469 6.28906C3.45573 6.44531 3.34896 6.59896 3.23438 6.75C3.17188 6.82812 3.10938 6.89062 3.04688 6.9375C2.98958 6.97917 2.90885 7 2.80469 7C2.66927 7 2.55208 6.95052 2.45312 6.85156C2.35417 6.7526 2.30469 6.63542 2.30469 6.5C2.30469 6.41667 2.32552 6.33333 2.36719 6.25C2.63281 5.75521 2.97135 5.30729 3.38281 4.90625C3.79427 4.50521 4.25 4.16406 4.75 3.88281C5.25 3.60156 5.77604 3.38542 6.32812 3.23438C6.88542 3.07812 7.44271 3 8 3C8.55208 3 9.10677 3.07812 9.66406 3.23438C10.2214 3.38542 10.75 3.60156 11.25 3.88281C11.75 4.16406 12.2057 4.50521 12.6172 4.90625C13.0286 5.30729 13.3672 5.75521 13.6328 6.25C13.6745 6.33333 13.6953 6.41667 13.6953 6.5C13.6953 6.63542 13.6458 6.7526 13.5469 6.85156C13.4479 6.95052 13.3307 7 13.1953 7C13.0911 7 13.0078 6.97917 12.9453 6.9375C12.888 6.89062 12.8281 6.82812 12.7656 6.75C12.651 6.59896 12.5417 6.44531 12.4375 6.28906C12.3385 6.13281 12.2266 5.98438 12.1016 5.84375C11.8464 5.55729 11.5599 5.29948 11.2422 5.07031C10.9297 4.84115 10.5964 4.64844 10.2422 4.49219C9.89323 4.33073 9.52865 4.20833 9.14844 4.125C8.76823 4.04167 8.38542 4 8 4ZM8 7C7.70833 7 7.42969 7.04167 7.16406 7.125C6.89844 7.20312 6.64062 7.31771 6.39062 7.46875C6.25 7.55729 6.1276 7.64583 6.02344 7.73438C5.92448 7.82292 5.83333 7.91667 5.75 8.01562C5.67188 8.11458 5.59635 8.22135 5.52344 8.33594C5.45052 8.44531 5.3724 8.57031 5.28906 8.71094C5.23698 8.79948 5.17448 8.86979 5.10156 8.92188C5.02865 8.97396 4.9401 9 4.83594 9C4.69531 9 4.57552 8.95052 4.47656 8.85156C4.38281 8.7526 4.33594 8.63281 4.33594 8.49219C4.33594 8.42448 4.35156 8.35417 4.38281 8.28125C4.53385 7.94792 4.73958 7.64062 5 7.35938C5.26042 7.07812 5.55208 6.83854 5.875 6.64062C6.19792 6.4375 6.54167 6.28125 6.90625 6.17188C7.27083 6.05729 7.63542 6 8 6C8.375 6 8.74479 6.05469 9.10938 6.16406C9.47396 6.27344 9.8151 6.42708 10.1328 6.625C10.4557 6.82292 10.7448 7.0625 11 7.34375C11.2552 7.625 11.4609 7.9375 11.6172 8.28125C11.6484 8.35417 11.6641 8.42448 11.6641 8.49219C11.6641 8.6276 11.6146 8.7474 11.5156 8.85156C11.4167 8.95052 11.2995 9 11.1641 9C11.0599 9 10.9714 8.97396 10.8984 8.92188C10.8255 8.86979 10.763 8.79948 10.7109 8.71094C10.6276 8.57031 10.5495 8.44531 10.4766 8.33594C10.4036 8.22135 10.3255 8.11458 10.2422 8.01562C10.1589 7.91667 10.0651 7.82292 9.96094 7.73438C9.86198 7.64583 9.74219 7.55729 9.60156 7.46875C9.35677 7.31771 9.09896 7.20312 8.82812 7.125C8.5625 7.04167 8.28646 7 8 7ZM6.75 10C6.75 9.82812 6.78385 9.66667 6.85156 9.51562C6.91927 9.36458 7.00781 9.23438 7.11719 9.125C7.23177 9.01042 7.36458 8.91927 7.51562 8.85156C7.66667 8.78385 7.82812 8.75 8 8.75C8.17188 8.75 8.33333 8.78385 8.48438 8.85156C8.63542 8.91927 8.76562 9.01042 8.875 9.125C8.98958 9.23438 9.08073 9.36458 9.14844 9.51562C9.21615 9.66667 9.25 9.82812 9.25 10C9.25 10.1719 9.21615 10.3333 9.14844 10.4844C9.08073 10.6354 8.98958 10.7682 8.875 10.8828C8.76562 10.9922 8.63542 11.0807 8.48438 11.1484C8.33333 11.2161 8.17188 11.25 8 11.25C7.82812 11.25 7.66667 11.2161 7.51562 11.1484C7.36458 11.0807 7.23177 10.9922 7.11719 10.8828C7.00781 10.7682 6.91927 10.6354 6.85156 10.4844C6.78385 10.3333 6.75 10.1719 6.75 10Z" fill="black" fill-opacity="0.8956"/>
</svg>
